<svg xmlns="http://www.w3.org/2000/svg" viewBox="0 0 300 300" fill="none">
  <path d="M150 25.17a125 125 0 00-88.39 213.39A125 125 0 00238.39 61.61 124.28 124.28 0 00150 25.17zm0 241.66a116.67 116.67 0 1182.5-34.17 116.67 116.67 0 01-82.5 34.17z" stroke="#D4AF37" stroke-width="2"/>
  <path d="M150 42a108.33 108.33 0 1076.6 31.73A108.33 108.33 0 00150 42zm0 208.33A100 100 0 11250 150a100 100 0 01-100 100z" stroke="#D4AF37" stroke-width="2"/>
  <path d="M195.83 62.5a75 75 0 00-106.06 11.21 75 75 0 00-8.84 94.85 75 75 0 0094.85 8.84 75 75 0 0011.21-106.06" stroke="#D4AF37" stroke-width="2"/>
  <path d="M150 75a75 75 0 1053.03 21.97A74.52 74.52 0 00150 75zm0 141.67A66.67 66.67 0 11216.67 150a66.67 66.67 0 01-66.67 66.67z" stroke="#D4AF37" stroke-width="2"/>
  <path d="M150 83.33a66.67 66.67 0 1047.14 19.53A66.19 66.19 0 00150 83.33zM100 150a50 50 0 1150 50 50 50 0 01-50-50z" stroke="#D4AF37" stroke-width="2"/>
  <path d="M150 108.33a41.67 41.67 0 1029.46 12.21 41.33 41.33 0 00-29.46-12.21z" stroke="#D4AF37" stroke-width="2"/>
  <path d="M150 125a25 25 0 1017.68 7.32A24.81 24.81 0 00150 125z" stroke="#D4AF37" stroke-width="2"/>
  <path d="M129.17 129.17a25 25 0 1035.35-35.36 25 25 0 00-35.35 35.36z" stroke="#D4AF37" stroke-width="2"/>
</svg>