<svg width="300" height="300" viewBox="0 0 300 300" fill="none" xmlns="http://www.w3.org/2000/svg">
  <path d="M281.33 194.55c-11.37 38.83-42.53 69.99-81.36 81.36-38.83 11.37-80.5-2.26-107.51-30.8-27.01-28.54-39.69-69.5-29.61-107.89 10.08-38.39 40.23-68.54 78.62-78.62s79.49-1.28 107.89 29.61c28.39 30.89 41.07 72.56 29.7 111.39z" stroke="currentColor" stroke-width="2"/>
  <path d="M265.59 191.07c-10.43 35.62-39.02 64.21-74.64 74.64-35.62 10.43-73.85-2.07-98.63-28.25-24.78-26.18-36.41-63.76-27.16-99 9.25-35.24 36.9-62.9 72.14-72.14s72.93-1.17 99 27.16c26.08 28.33 37.71 65.91 27.29 101.53z" stroke="currentColor" stroke-width="2"/>
  <path d="M250.7 187.75c-9.57 32.68-35.8 58.91-68.48 68.48-32.68 9.57-67.75-1.9-90.48-25.92-22.73-24.02-33.4-58.49-24.92-90.84 8.48-32.35 33.85-57.72 66.19-66.19s66.91-1.08 90.84 24.92c23.93 26 34.6 60.47 25.13 92.81z" stroke="currentColor" stroke-width="2"/>
  <path d="M235.8 184.43c-8.71 29.74-32.58 53.61-62.32 62.32-29.74 8.71-61.65-1.74-82.33-23.59-20.68-21.85-30.37-53.22-22.68-82.69 7.69-29.47 30.8-52.58 60.26-60.26s60.89-.98 82.69 22.68c21.8 23.69 31.49 54.98 22.78 84.54z" stroke="currentColor" stroke-width="2"/>
  <path d="M220.9 181.11c-7.85 26.8-29.36 48.31-56.16 56.16-26.8 7.85-55.55-1.58-74.18-21.26-18.63-19.68-27.34-47.95-20.44-74.54 6.9-26.59 27.76-47.45 54.35-54.35s54.87-.89 74.54 20.44c19.68 21.36 28.39 49.49 20.54 76.29z" stroke="currentColor" stroke-width="2"/>
  <path d="M206 177.79c-7 23.86-26.14 43.01-50 50-23.86 7-49.45-1.42-66.03-18.93-16.58-17.51-24.31-42.68-18.2-66.39 6.11-23.71 24.71-42.31 48.42-48.42s48.85-.8 66.39 18.2c17.54 19.03 25.27 44.2 18.2 68.02z" stroke="currentColor" stroke-width="2"/>
  <path d="M191.1 174.47c-6.14 20.92-22.92 37.7-43.84 43.84-20.92 6.14-43.35-1.25-57.88-16.6-14.53-15.34-21.28-37.41-15.96-58.24 5.32-20.83 21.66-37.17 42.49-42.49s42.83-.7 58.24 15.96c15.41 16.69 22.21 38.77 15.95 59.53z" stroke="currentColor" stroke-width="2"/>
</svg>